<svg xmlns="http://www.w3.org/2000/svg" width="444.942" height="180.532" viewBox="0 0 444.942 180.532">
    <defs>
        <style>
            .a {
                fill: #040506;
                opacity: 0.1;
            }

            .b {
                fill: #fff;
            }

            .b,
            .c {
                stroke: #bababa;
                stroke-miterlimit: 10;
            }

            .c {
                fill: none;
            }

            .d {
                fill: #747474;
                font-size: 11px;
                font-family: Calibri-Bold, Calibri;
                font-weight: 700;
                letter-spacing: 0.025em;
            }

            .e,
            .f {
                fill: #4e8bc2;
            }

            .f {
                fill-rule: evenodd;
            }
        </style>
    </defs>
    <g transform="translate(-702.002 -1380.802)">
        <path class="a"
            d="M784.132,1413.532v125.757a1.634,1.634,0,0,1-1.634,1.634H758.244a2.527,2.527,0,0,0-2.356,1.578,30.036,30.036,0,0,1-27.954,18.833H727.1a1.633,1.633,0,0,1-1.634-1.634v-15.526a3.261,3.261,0,0,0-3.251-3.251h0A20.213,20.213,0,0,1,702,1520.71v-90.231a18.6,18.6,0,0,1,18.579-18.581H782.5A1.634,1.634,0,0,1,784.132,1413.532Z" />
        <path class="b"
            d="M1128.342,1423.654v91.862a18.6,18.6,0,0,1-18.579,18.582H765.07a2.526,2.526,0,0,0-2.356,1.578,30.039,30.039,0,0,1-27.955,18.833h-2.468v-18.8a1.617,1.617,0,0,0-1.613-1.616h-3.271a18.6,18.6,0,0,1-18.579-18.582v-91.862a18.6,18.6,0,0,1,18.579-18.582h382.356A18.6,18.6,0,0,1,1128.342,1423.654Z" />
        <rect class="c" width="4.932" height="17.009" rx="2.442" transform="translate(1120.134 1381.302)" />
        
        <path class="c"
            d="M2.442,0H14.567a2.442,2.442,0,0,1,2.442,2.442v.049a2.442,2.442,0,0,1-2.442,2.442H2.44A2.44,2.44,0,0,1,0,2.492v-.05A2.442,2.442,0,0,1,2.442,0Z"
            transform="translate(1127.799 1396.464) rotate(-45.022)" />
        
        <rect class="c" width="17.009" height="4.933" rx="2.442" transform="translate(1129.435 1402.679)" />
        
    </g>
</svg>