<svg xmlns="http://www.w3.org/2000/svg" width="95.242" height="77.462" version="1.1" id="prefix__svg34">
    <defs id="prefix__defs4">
        <style id="style2">
            .prefix__c {
                opacity: .45;
            }

            .d {
                fill: #3eb1ba;
            }

        </style>
    </defs>
    <g id="prefix__g30" transform="translate(-5125.37 -1875.732)" opacity=".87">
        <g id="prefix__g18" class="prefix__c" opacity=".45">
            <path id="prefix__path12" d="M5220.576 1923.616a1.633 1.633 0 00-1.577-1.291c-.244 0-21.915-.465-35.134-17.7a38.371 38.371 0 0116.979-11.914l2.044 7.1 8.05-14.563-14.564-8.052 2.02 7.015c-8.286 3.077-14.839 8.257-18.526 14.126-.116-.223-.234-.443-.347-.67a5.887 5.887 0 00-6.36-3.049l-27.993 6.745a4.257 4.257 0 00-2.952 2.36 4.129 4.129 0 00.2 3.663c4.862 9.029 18.77 30.363 42.822 33.485a1.645 1.645 0 00.21.014 1.622 1.622 0 00.677-.148l33.538-15.3a1.628 1.628 0 00.913-1.821zm-35.381 13.962c-22.282-3.141-35.328-23.211-39.922-31.74a.928.928 0 01-.086-.792 1.041 1.041 0 01.742-.522l27.995-6.744a1.834 1.834 0 01.437-.051 2.636 2.636 0 012.247 1.392c.463.923.951 1.806 1.452 2.666a17.156 17.156 0 00-.876 11.481 15.756 15.756 0 001.834 4.073 19.667 19.667 0 012.924-9.9c9.723 12.078 23.3 16.124 31.023 17.472z" class="d" />
            <path id="prefix__path14" d="M5185.237 1950l-1.09.01a111.31 111.31 0 01-36.431-5.821l-22.346 9.005h59.287l34.326-15.133h-8.721z" class="d" />
            <path id="prefix__path16" d="M5131.744 1933.237c6.5 4.109 24.7 13.665 53.121 13.5l33.123-15.809s-1.785.01-4.71-.077l-28.3 12.912-.462-.06c-16.184-2.1-27.742-12.424-35-21.567l-17.484 7.916c-1.642.748-1.808 2.225-.288 3.185z" class="d" />
        </g>
        <g id="prefix__g28" class="prefix__c" opacity=".45">
            <path id="prefix__path20" d="M5150.812 1875.732c-7.684 0-13.916 4.111-13.916 9.182 0 4.015 3.9 7.427 9.347 8.675 0 0 1.581.767-1.017 3.422-1.082 1.108 4.282-1.7 5.425-2.495a1.848 1.848 0 01.827-.4c.3-.046.556-.055.686-.063 7.049-.448 12.562-4.368 12.562-9.138 0-5.072-6.226-9.183-13.914-9.183zm1.923 17.239c-.1.01-.3.016-.547.048-.282.065-.366-.115-.665.091a29.018 29.018 0 01-5.092 3.158c2.077-2.125 1.067-3.67 1.067-3.67-4.353-1-8.738-3.91-8.738-7.12-.252-4.8 5.223-8.564 12.9-8.275 6.143 0 11.129 4.4 11.129 8.456 0 3.815-4.412 6.953-10.054 7.312z" class="d" />
            <circle id="prefix__circle22" transform="translate(5142.849 1883.586)" r="1.971" cy="1.971" cx="1.971" class="d" />
            <circle id="prefix__circle24" transform="translate(5149.116 1883.586)" r="1.971" cy="1.971" cx="1.971" class="d" />
            <circle id="prefix__circle26" transform="translate(5154.833 1883.363)" r="1.971" cy="1.971" cx="1.971" class="d" />
        </g>
    </g>
</svg>