<svg xmlns="http://www.w3.org/2000/svg" width="139.201" height="101.376" viewBox="0 0 139.201 101.376"><defs><style>.a,.c{fill:#fff;}.b{fill:#3eb1ba;font-size:15.686px;font-family:Futura-CondensedExtraBold, Futura;font-weight:800;letter-spacing:0.035em;}.c{font-size:31px;font-family:Calibri-Bold, Calibri;font-weight:700;}</style></defs><g transform="translate(-9351.672 -2636.684)"><path class="a" d="M9426.447,2636.684a45.373,45.373,0,0,0-42.281,28.908q-.356.915-.673,1.847a44.9,44.9,0,0,0-1.757,6.943q-.9.1-1.772.27a26.5,26.5,0,0,0-9.99,4.115l-5.84-4.326-5.46,5.46,4.3,5.807a26.5,26.5,0,0,0-4.22,10.042l-7.083,1.055v7.721l7.022,1.046a26.458,26.458,0,0,0,4.17,10.2l-4.19,5.657,5.46,5.459,5.622-4.165a26.483,26.483,0,0,0,10.255,4.275l1.027,6.892h7.721l.968-6.5h34.817v-.04q.946.039,1.9.04a45.356,45.356,0,0,0,0-90.712Zm24.988,70.345a35.3,35.3,0,0,1-49.978,0c-.281-.28-.555-.567-.825-.855a16.549,16.549,0,0,1-3.988,6.394,16.789,16.789,0,0,1-2.059,1.752,16.451,16.451,0,0,1-8.352,3.06h-2.671a16.616,16.616,0,0,1-2.4-32.751,16.732,16.732,0,0,1,3.734-.419h0a16.83,16.83,0,0,1,2.184.142,16.475,16.475,0,0,1,4.188,1.119q-.164-1.7-.164-3.431a35.565,35.565,0,0,1,.679-6.945,35.354,35.354,0,1,1,59.649,31.934Z"/><path class="a" d="M9384.9,2691.75a9.072,9.072,0,1,0,9.071,9.072A9.066,9.066,0,0,0,9384.9,2691.75Z"/><path class="a" d="M9468.494,2723.1a11.189,11.189,0,1,1,11.188,11.19,11.189,11.189,0,0,1-11.188-11.19"/><text class="b" transform="translate(9479.686 2729.088)"><tspan x="-2.248" y="0">i</tspan></text><text class="c" transform="translate(9389.645 2668.06)"><tspan x="9.786" y="23">ABC</tspan></text></g></svg>