<?xml version="1.0" encoding="UTF-8" standalone="no"?>
<svg
   xmlns:dc="http://purl.org/dc/elements/1.1/"
   xmlns:cc="http://creativecommons.org/ns#"
   xmlns:rdf="http://www.w3.org/1999/02/22-rdf-syntax-ns#"
   xmlns:svg="http://www.w3.org/2000/svg"
   xmlns="http://www.w3.org/2000/svg"
   xmlns:sodipodi="http://sodipodi.sourceforge.net/DTD/sodipodi-0.dtd"
   xmlns:inkscape="http://www.inkscape.org/namespaces/inkscape"
   width="100%"
   height="55"
   viewBox="0 0 70 55"
   version="1.1"
   id="svg10"
   sodipodi:docname="ico-bocadillo-exportarPdf.svg"
   inkscape:version="0.92.5 (2060ec1f9f, 2020-04-08)">
  <sodipodi:namedview
     pagecolor="#ffffff"
     bordercolor="#666666"
     borderopacity="1"
     objecttolerance="10"
     gridtolerance="10"
     guidetolerance="10"
     inkscape:pageopacity="0"
     inkscape:pageshadow="2"
     inkscape:window-width="1920"
     inkscape:window-height="980"
     id="namedview828"
     showgrid="false"
     inkscape:zoom="7.2909091"
     inkscape:cx="50.392129"
     inkscape:cy="21.357316"
     inkscape:window-x="0"
     inkscape:window-y="27"
     inkscape:window-maximized="1"
     inkscape:current-layer="svg10" />
  <metadata
     id="metadata823">
    <rdf:RDF>
      <cc:Work
         rdf:about="">
        <dc:format>image/svg+xml</dc:format>
        <dc:type
           rdf:resource="http://purl.org/dc/dcmitype/StillImage" />
        <dc:title></dc:title>
      </cc:Work>
    </rdf:RDF>
  </metadata>
  <defs
     id="defs4">
    <style
       id="style2"> 
   .prefix__d { fill: #4e8bc2;
   } 
   .prefix__g {
      fill: #fff ;
      stroke: #4e8bc2 ;
      stroke-width: .52916 ;
      stroke-linecap: round ;
      stroke-miterlimit: 10 ;
   }
   .prefix__f {
      fill : #fff;
      stroke : #4e8bc2;
      stroke-width : .13229;
      stroke-linecap : round;
      stroke-linejoin : round;
   }
   </style>
  </defs>
  <g
     id="g36"
     transform="matrix(3.1171815,0,0,3.1171815,6.4918164,0.54261427)">
    <path
       inkscape:connector-curvature="0"
       id="path6"
       class="prefix__d"
       d="m 14.94,12.866 h 2.481 a 0.87,0.87 0 0 0 0.87,-0.87 V 2.026 C 18.29,0.944 17.664,0.13 16.89,0.13 H 16.834 A 1.895,1.895 0 0 0 14.94,2.025" />
    <path
       style="fill:#ffffff;stroke:#4e8bc2;stroke-width:0.13229001;stroke-linecap:round;stroke-linejoin:round"
       inkscape:connector-curvature="0"
       id="path8"
       class="prefix__f"
       d="M 16.834,0.066 H 3.211 a 1.96,1.96 0 0 0 -1.96,1.96 v 0 15.204 h 13.624 v -15.204 0 a 1.96,1.96 0 0 1 1.96,-1.96 z" />
    <path
       style="fill:#ffffff;stroke:#4e8bc2;stroke-width:0.52916002;stroke-linecap:round;stroke-miterlimit:10"
       inkscape:connector-curvature="0"
       id="path10"
       d="m 3.423,7.303 h 9.371 M 3.423,8.649 h 9.371 M 3.423,9.995 h 9.371"
       class="prefix__g" />
    <path
       style="fill:#ffffff;stroke:#4e8bc2;stroke-width:0.13229001;stroke-linecap:round;stroke-linejoin:round"
       inkscape:connector-curvature="0"
       id="path12"
       d="m 3.423,11.34 h 9.371"
       class="prefix__f" />
    <path
       style="fill:#ffffff;stroke:#4e8bc2;stroke-width:0.52916002;stroke-linecap:round;stroke-miterlimit:10"
       inkscape:connector-curvature="0"
       id="path14"
       d="m 3.423,11.34 h 9.371 m -9.371,1.347 h 9.371 m -9.371,1.345 h 9.371 m -9.371,1.346 h 9.371"
       class="prefix__g" />
    <g
       id="g20">
      <path
         inkscape:connector-curvature="0"
         id="path16"
         d="M 0,1.469 H 10.257 V 5.761 H 0 Z M 1.251,6.653 0,5.761 h 1.251 z"
         class="prefix__d" />
      <path
         style="fill:#ffffff"
         inkscape:connector-curvature="0"
         id="path18"
         class="prefix__i"
         d="m 2.521,4.097 v 0.79 H 2.08 V 2.273 h 0.949 c 0.593,0 0.888,0.294 0.888,0.887 0,0.594 -0.295,0.938 -0.888,0.938 z M 3.024,3.671 c 0.298,0 0.438,-0.193 0.438,-0.51 C 3.462,2.843 3.322,2.7 3.024,2.7 H 2.52 V 3.67 Z M 4.335,4.887 V 2.272 h 0.88 c 0.85,0 1.051,0.438 1.051,1.262 0,0.839 -0.177,1.353 -1.05,1.353 z M 5.215,2.695 H 4.773 v 1.769 h 0.443 c 0.517,0 0.593,-0.39 0.593,-0.93 0,-0.54 -0.076,-0.839 -0.593,-0.839 z M 6.72,2.272 H 8.35 V 2.696 H 7.157 v 0.842 h 0.967 v 0.42 H 7.157 v 0.93 H 6.719 Z" />
    </g>
  </g>
</svg>
