<svg xmlns="http://www.w3.org/2000/svg" width="58.112" height="58.112" viewBox="0 0 58.112 58.112"><defs><style>.a{fill:#14718a;}.a,.b,.c,.d,.e,.f,.g,.h,.i,.j,.k,.l,.m,.n,.o{fill-rule:evenodd;}.b{fill:#4995a9;}.c{fill:#f6c2a1;}.d{fill:#e39774;}.e{fill:#8c5930;}.f{fill:#d6d7d6;}.g{fill:#134d7a;}.h{fill:#8994a0;}.i,.p{fill:#fff;}.j{fill:#fbdac4;}.k{fill:#f2bc9e;}.l{fill:#aa8260;}.m{fill:#e2e2e1;}.n{fill:#4c789b;}.o{fill:#a7aeb8;}</style></defs><g transform="translate(-1604.363 -281.87)"><path class="a" d="M1633.419,281.87a29.056,29.056,0,1,1-29.056,29.056,29.056,29.056,0,0,1,29.056-29.056Z"/><path class="b" d="M1633.419,310.926v29.056a29.056,29.056,0,0,1,0-58.112v29.056Z"/><path class="c" d="M1617.578,335.266c.094-6.364-1.1-12.769,12.4-13.9,0-.548-.005-4.6-.007-5.151h6.9c0,.546,0,4.6-.006,5.151,13.505,1.136,12.3,7.553,12.4,13.924-.446.29-.9.571-1.364.838l-14.4-.084h-.161l-14.369.084c-.472-.272-.937-.558-1.391-.857Z"/><path class="d" d="M1636.972,316.454h-7.107c.808,2.749,6.3,2.749,7.107,0Z"/><path class="c" d="M1623.649,304c-1.17-.128-1,6.855,1.016,6.9,1.625,3.566,4.535,6.6,8.741,6.6s7.159-3.032,8.783-6.6c1.818,0,2.17-7.022.972-6.9.418-7.518.15-12.22-9.7-12.22s-10.3,4.425-9.816,12.22Z"/><path class="e" d="M1637.949,297.022c3.062-1.6,3.707,2.295,2.78,5.369a4.721,4.721,0,0,0-.2,1.588l0,2.767.747.005c.013-1.72.289-2.822,1.88-2.752.522-8.246-.316-12.218-9.747-12.22-9.454,0-10.319,3.947-9.76,12.22,1.59-.07,1.866,1.032,1.881,2.752l.785.018V304a4.969,4.969,0,0,0-.24-1.611c-.927-3.075-.361-6.8,2.78-5.369,2.569,1.175,7.061,1.063,9.1,0Z"/><path class="f" d="M1617.578,335.266c.094-6.364-1.1-12.769,12.4-13.9l0-1.358a16.907,16.907,0,0,0,6.893,0l0,1.358c13.505,1.136,12.3,7.553,12.4,13.924-.452.294-.911.58-1.38.848l-14.459.943-14.44-.945q-.717-.413-1.4-.865Z"/><path class="g" d="M1631.631,322.119l1.011,2.021-.807,8.3,1.581,6.363,1.585-6.415-.843-8.195,1.043-2.063-1.8-1.5-1.769,1.493Z"/><path class="h" d="M1617.578,335.266c.094-6.364-1.1-12.769,12.4-13.9l3.439,17.437,3.449-17.437c13.505,1.136,12.3,7.553,12.4,13.924a28.926,28.926,0,0,1-15.813,4.7h-.043l-.708-.01h-.071l-.556-.022-.259-.012-.27-.016-.078-.006-.461-.034-.269-.024a28.864,28.864,0,0,1-13.155-4.59Z"/><path class="i" d="M1629.972,320a16.907,16.907,0,0,0,6.893,0l-.776,3.188-2.689-2.565-2.652,2.565-.776-3.188Z"/><path class="j" d="M1617.578,335.266c.094-6.364-1.1-12.769,12.4-13.9,0-.548-.005-4.6-.007-5.151h3.451v19.829h-.081l-14.369.084c-.472-.272-.937-.558-1.391-.857Z"/><path class="k" d="M1633.419,316.454h-3.554c.4,1.375,1.979,2.063,3.554,2.063v-2.063Z"/><path class="j" d="M1623.649,304c-1.17-.128-1,6.855,1.016,6.9,1.625,3.566,4.535,6.6,8.741,6.6h.013V291.779c-9.8.014-10.25,4.437-9.77,12.22Z"/><path class="l" d="M1633.419,291.779h-.011c-9.454,0-10.319,3.947-9.76,12.22,1.59-.07,1.866,1.032,1.881,2.752l.785.018V304a4.969,4.969,0,0,0-.24-1.611c-.927-3.075-.361-6.8,2.78-5.369a11.6,11.6,0,0,0,4.566.84v-6.083Z"/><path class="m" d="M1617.578,335.266c.094-6.364-1.1-12.769,12.4-13.9l0-1.358a16.385,16.385,0,0,0,3.447.355v16.718l-14.437-.945q-.717-.413-1.4-.865Z"/><path class="n" d="M1631.631,322.119l1.011,2.021-.807,8.3,1.581,6.363,0-.01V320.642l-.02-.016-1.769,1.493Z"/><path class="o" d="M1617.578,335.266c.094-6.364-1.1-12.769,12.4-13.9l3.439,17.437.005-.024v1.207h-.014l-.708-.01h-.071l-.556-.022-.259-.012-.27-.016-.078-.006-.461-.034-.269-.024a28.864,28.864,0,0,1-13.155-4.59Z"/><path class="i" d="M1629.972,320a16.385,16.385,0,0,0,3.447.355v.287l-.019-.019-2.652,2.565-.776-3.188Z"/><path class="p" d="M1633.419,313.65c1.691,0,3.062-.559,3.062-1.248h-6.124C1630.357,313.091,1631.728,313.65,1633.419,313.65Z"/></g></svg>