<svg xmlns="http://www.w3.org/2000/svg" xmlns:xlink="http://www.w3.org/1999/xlink" width="58.112" height="58.112" viewBox="0 0 58.112 58.112"><defs><style>.a{fill:none;}.b{fill:#fbe243;}.c{clip-path:url(#a);}.d,.j{fill:#e9b389;}.e{fill:#2272b9;}.f,.g{fill:#e0e7f0;}.g,.j{mix-blend-mode:multiply;isolation:isolate;}.h{fill:#3a3937;}.i{fill:#e65539;}.j{opacity:0.5;}</style><clipPath id="a"><circle class="a" cx="29.056" cy="29.056" r="29.056" transform="translate(1447.153 281.87)"/></clipPath></defs><g transform="translate(-1447.153 -281.87)"><circle class="b" cx="29.056" cy="29.056" r="29.056" transform="translate(1447.153 281.87)"/><g class="c"><path class="d" d="M1487.328,335.3h-22.414a17.507,17.507,0,0,1,.31-3.748,3.562,3.562,0,0,1,.237-.631v0c.076-.193.162-.383.251-.569l.02-.044a11.351,11.351,0,0,1,.84-1.472c.18-.267.372-.53.574-.782.14-.173.282-.341.429-.5.072-.083.148-.164.225-.245s.153-.158.232-.237v0l.011-.008.011-.009v0a11.283,11.283,0,0,1,1.232-1.062c.221-.164.444-.317.676-.466.029-.02.059-.037.09-.055s.066-.041.1-.061l.1-.059c.066-.039.131-.079.2-.116l.015-.009.1-.059.1-.059h0v0h.007v0c.028-.016.059-.031.088-.048s.035-.022.052-.031l.044-.026.041-.027a.441.441,0,0,0,.051-.028c.061-.037.122-.077.184-.116.015-.009.028-.02.043-.029.044-.028.09-.059.134-.089l.072-.053c.055-.037.109-.076.162-.116l0,0,.007,0,.006,0,.018-.013c.052-.039.107-.079.157-.12h0v0a7.364,7.364,0,0,0,1.008-.974,7.155,7.155,0,0,0,.736-1.029,7.065,7.065,0,0,0,.8-1.947l0-.011c.044-.16.077-.324.107-.488a7.389,7.389,0,0,0,.114-1.3l1.692.009h.017l.2,0h.083l1.436.007a7.406,7.406,0,0,0,.109,1.271,4.837,4.837,0,0,0,.1.481l.006.025a6.9,6.9,0,0,0,.2.674,7.3,7.3,0,0,0,1.256,2.214,7.168,7.168,0,0,0,1.076,1.064h0l0,0q.055.049.111.09c.033.026.068.05.1.076l.013.009v0l.009.007a.1.1,0,0,1,.024.015l.013.009a.12.12,0,0,1,.018.015c.024.018.048.035.072.051s.079.056.12.083c.018.013.033.024.051.035l.072.048c.044.028.087.057.131.083.011.007.024.013.037.022l.079.046.007,0,0,0a.055.055,0,0,0,.017.011c.055.033.112.066.169.1a.236.236,0,0,1,.039.019.449.449,0,0,1,.046.029l.024.011c.016.009.031.017.044.026l.173.1c.094.054.19.111.282.17.046.029.09.055.134.086s.089.056.133.089c.182.116.359.243.532.374v0h0c.16.12.32.245.473.374.057.046.116.1.173.144.2.169.385.344.569.528.013.011.024.022.037.035v0a11.472,11.472,0,0,1,1.442,1.749,5.648,5.648,0,0,1,.858,1.505A28.485,28.485,0,0,1,1487.328,335.3Z"/><path class="e" d="M1487.822,347.736H1464.6c0-1.311.217-15.012.619-16.187q.108-.32.237-.631v0c.076-.193.162-.383.251-.569l.02-.044a11.351,11.351,0,0,1,.84-1.472c.18-.267.372-.53.574-.782.14-.173.282-.341.429-.5.072-.083.148-.164.225-.245s.153-.158.232-.237l.011-.01.011-.009a11.39,11.39,0,0,1,1.232-1.062c.221-.164.444-.317.676-.466q.043-.029.09-.054l.1-.064.1-.059c.066-.039.131-.079.2-.116l.015-.009.1-.059c.033-.02.066-.039.1-.057l0,0h.007v0h0c.031-.018.059-.035.088-.05s.035-.022.052-.031l.044-.026.041-.024c.018-.009.033-.018.051-.029.061-.037.122-.076.184-.116.015-.009.028-.02.043-.031.044-.028.09-.059.134-.089l.072-.053c.055-.037.109-.076.162-.116l0,0,.007,0,.006-.007.018-.013c.05-.039.1-.081.153-.122l0,0,0,0h0c.124.127.251.249.387.365.066.057.133.112.2.167,0,0,0,0,.005,0,.063.05.124.1.188.146a.437.437,0,0,0,.044.031c.065.046.131.092.2.136.148.1.3.19.457.275.079.044.158.086.238.125s.167.079.25.114a.069.069,0,0,0,.033.015c.094.042.188.081.284.116s.2.07.294.1c.074.024.148.046.225.066s.136.037.2.052a.159.159,0,0,0,.049.011.04.04,0,0,0,.015,0,6.233,6.233,0,0,0,.665.116c.079.009.158.018.239.024.149.013.3.018.448.02h.1c.035,0,.07,0,.105,0h.006a.237.237,0,0,0,.053,0,.015.015,0,0,0,.013,0c.024,0,.046,0,.07-.005.1,0,.2-.011.3-.019s.175-.02.261-.031a.2.2,0,0,0,.035,0,.123.123,0,0,0,.032-.007c.068-.009.134-.022.2-.033l.021,0a.078.078,0,0,0,.031-.006l.026-.007c.027,0,.051-.011.077-.015s.07-.016.105-.022l.011,0c.028-.009.061-.013.09-.022.1-.024.192-.048.286-.077s.189-.057.28-.09c.145-.048.285-.1.423-.161.092-.04.179-.079.269-.125s.151-.075.223-.116c.055-.029.107-.059.16-.09s.116-.066.173-.1l.046-.026c.048-.031.094-.061.14-.094.026-.015.05-.033.074-.05a.5.5,0,0,0,.042-.029q.094-.066.186-.138l0,0c.013-.009.029-.02.042-.031s.059-.046.087-.072c.046-.035.092-.072.136-.109.147-.123.287-.254.42-.39l.005,0,0,0c.037.031.074.059.111.09s.068.05.1.076l.013.011.009.009a.1.1,0,0,1,.024.015l.013.009.018.013c.024.018.048.035.072.051s.079.059.12.085c.018.013.033.024.051.035l.072.046c.044.028.087.057.131.083l.037.024a.74.74,0,0,0,.086.048l0,0a.055.055,0,0,0,.017.011c.055.033.112.066.169.1a.236.236,0,0,1,.039.019.449.449,0,0,1,.046.029l.024.013c.016.009.031.017.044.026l.064.037h0l.015.009c.033.018.061.035.092.053.094.054.19.111.282.17.046.027.09.055.134.084s.089.061.133.091c.182.116.359.243.532.375h0c.16.12.32.245.473.374.059.048.116.1.173.147.2.168.385.343.569.527.013.011.024.022.037.035a11.682,11.682,0,0,1,2.3,3.254C1487.424,331.84,1487.822,345.959,1487.822,347.736Z"/><path class="f" d="M1477.6,326.117c-.035.006-.07.013-.105.022s-.051.01-.077.015l-.026.006a.064.064,0,0,1-.031.007l-.022,0c-.065.011-.131.024-.2.033-.011,0-.022,0-.033.007a.2.2,0,0,1-.035,0c-.085.011-.173.022-.26.03s-.2.016-.3.02c-.024,0-.046,0-.07,0a.015.015,0,0,1-.014,0,.228.228,0,0,1-.052,0h-.007c-.035,0-.07,0-.1,0h-.1c-.151,0-.3-.007-.449-.02-.081-.006-.159-.015-.238-.024a6.405,6.405,0,0,1-.665-.116l.4,1.53,1,3.773v.008l0,0v0l1-3.775.4-1.524Z"/><path class="g" d="M1477.6,326.117c-.035.006-.07.013-.105.022s-.051.01-.077.015l-.026.006a.064.064,0,0,1-.031.007l-.022,0c-.065.011-.131.024-.2.033-.011,0-.022,0-.033.007a.2.2,0,0,1-.035,0c-.085.011-.173.022-.26.03s-.2.016-.3.02c-.024,0-.046,0-.07,0a.015.015,0,0,1-.014,0,.228.228,0,0,1-.052,0h-.007c-.035,0-.07,0-.1,0h-.1c-.151,0-.3-.007-.449-.02-.081-.006-.159-.015-.238-.024a6.405,6.405,0,0,1-.665-.116l.4,1.53,1,3.773v.008l0,0v0l1-3.775.4-1.524Z"/><path class="f" d="M1481.981,325.226c-1.064.991-3.808,3.556-3.839,3.6a11.768,11.768,0,0,1-.932-1.192c-.42-.569-.856-1.167-1-1.362l0,0,0,0h.052c.035,0,.07,0,.1,0h.007a.228.228,0,0,0,.052,0,.015.015,0,0,0,.014,0c.024,0,.046,0,.07,0,.1,0,.2-.011.3-.02s.175-.019.26-.03a.2.2,0,0,0,.035,0c.011,0,.022,0,.033-.007.068-.009.134-.022.2-.033l.022,0a.064.064,0,0,0,.031-.007l.026-.006c.026-.005.05-.011.077-.015s.07-.016.105-.022l.011,0c.028-.008.061-.013.089-.021.1-.024.193-.049.287-.077s.188-.057.28-.09c.145-.048.285-.1.422-.162.092-.039.18-.078.27-.124s.151-.075.223-.116c.055-.029.107-.059.16-.09a2,2,0,0,0,.172-.1l.046-.026c.049-.031.095-.062.14-.094a.811.811,0,0,0,.075-.051.411.411,0,0,0,.041-.028c.064-.044.125-.09.186-.138l.005,0c.013-.009.028-.02.041-.031.029-.022.06-.046.088-.072.046-.035.092-.072.136-.109.146-.123.286-.254.42-.39l0,0,0,0c.075.061.149.118.226.177l.009.009a.121.121,0,0,1,.024.015l.013.009c.068.05.138.1.21.149.017.013.033.024.05.035.079.052.16.1.241.153s.182.107.273.157a.3.3,0,0,1,.04.02c.024.013.048.029.07.042s.031.017.044.026l.063.037h0Z"/><path class="f" d="M1476.219,326.27l0,.007,0,0,0,0c-.14.2-.575.794-.993,1.359a12.523,12.523,0,0,1-.93,1.191c-.031-.049-2.778-2.616-3.839-3.607l.015-.009.1-.059c.033-.02.066-.039.1-.057l0,0h.007v0h0c.031-.018.059-.035.088-.05s.035-.022.052-.031l.044-.026.041-.024c.018-.009.033-.018.051-.029.061-.037.122-.076.184-.116.015-.009.028-.02.043-.031.044-.028.09-.059.134-.089l.072-.053c.055-.037.109-.076.162-.116l0,0,.007,0,.006-.007.018-.013c.05-.039.1-.081.153-.122l0,0,0,0h0c.124.127.251.249.387.365.066.057.133.112.2.167,0,0,0,0,.005,0,.063.05.124.1.188.146a.437.437,0,0,0,.044.031c.065.046.131.092.2.136.148.1.3.19.457.275.079.044.158.086.238.125s.167.079.25.114a.069.069,0,0,0,.033.015c.094.042.188.081.284.116s.2.07.294.1c.074.024.148.046.225.066s.136.037.2.052a.159.159,0,0,0,.049.011.04.04,0,0,0,.015,0,6.233,6.233,0,0,0,.665.116c.079.009.158.018.239.024.149.013.3.018.448.02Z"/><path class="d" d="M1485.119,303.018V309.7c0,.088,0,.173,0,.261s-.005.155-.009.234-.006.14-.013.21c0,.05-.007.1-.011.151,0,.031,0,.059-.009.09,0,.055-.008.112-.017.166-.009.105-.022.208-.037.313,0,.026-.007.053-.011.079-.007.052-.016.105-.024.158v.006a.11.11,0,0,0-.005.031c-.013.065-.024.131-.035.2-.02.105-.039.21-.061.313l-.005.013a.415.415,0,0,1-.008.046l-.005.013c-.008.046-.019.092-.03.136l-.007.03a.48.48,0,0,1-.017.072c-.007.04-.018.079-.027.119-.006.021-.011.045-.019.067s-.011.04-.016.057c-.046.18-.1.355-.153.53-.026.083-.052.164-.081.247l-.009.026c-.008.022-.015.046-.024.068-.017.048-.035.1-.05.145l0,.011c-.009.022-.018.043-.027.067-.026.071-.052.141-.081.211s-.067.168-.1.251-.064.149-.1.223c0,.014-.011.025-.015.038-.037.078-.072.157-.109.234s-.077.162-.119.243l-.006.011c-.077.155-.16.313-.243.464l-.118.21a12.865,12.865,0,0,1-1.119,1.628c-.054.072-.111.142-.17.21-.081.1-.164.2-.248.289s-.142.16-.216.236l-.009.011c-.14.149-.28.3-.425.433-.072.073-.144.141-.218.208-.044.044-.09.084-.136.125-.074.068-.149.134-.225.2-.06.053-.121.1-.182.153-.158.129-.315.254-.475.37-.066.05-.133.1-.2.145q-.165.117-.333.225c-.061.042-.125.081-.188.118a.25.25,0,0,1-.031.018c-.212.131-.429.251-.641.356-.055.029-.109.055-.164.081s-.112.053-.171.079-.133.059-.2.085l-.015.007a.749.749,0,0,1-.086.033c-.085.035-.173.068-.258.1-.107.04-.217.072-.324.1-.074.022-.151.042-.225.059a.038.038,0,0,1-.016,0c-.074.018-.148.035-.223.049l-.059.011c-.061.01-.123.021-.184.028a2.582,2.582,0,0,1-.262.028.429.429,0,0,1-.079.007h-.011c-.07,0-.138.007-.206.007h-.009c-.067,0-.135,0-.2-.007a.423.423,0,0,1-.079-.007,1.828,1.828,0,0,1-.19-.017.294.294,0,0,1-.042,0c-.081-.011-.162-.025-.245-.04s-.14-.026-.212-.044a5.863,5.863,0,0,1-.937-.3c-.07-.027-.142-.057-.212-.088a8.4,8.4,0,0,1-1.005-.53c-.019-.011-.037-.024-.057-.035-.148-.091-.3-.19-.446-.293-.083-.059-.166-.118-.249-.179q-.391-.287-.773-.622-.105-.094-.21-.192l-.208-.193-.046-.046c-.147-.14-.289-.284-.425-.438a.351.351,0,0,1-.028-.028c-.063-.068-.127-.138-.19-.21-.175-.2-.346-.4-.508-.613-.064-.076-.123-.155-.182-.234-.221-.293-.431-.6-.628-.917-.052-.085-.1-.173-.155-.258-.061-.1-.121-.208-.18-.313-.085-.153-.166-.309-.245-.466-.127-.248-.243-.5-.35-.76-.026-.061-.052-.122-.074-.184-.035-.078-.066-.159-.094-.238-.013-.037-.029-.074-.04-.112s-.037-.1-.054-.151c-.011-.028-.022-.057-.031-.085-.04-.116-.077-.234-.114-.352s-.068-.228-.1-.344-.068-.247-.1-.374c0-.013-.006-.026-.008-.04l0-.01c-.041-.171-.076-.346-.109-.521-.013-.066-.024-.132-.033-.2-.03-.171-.052-.346-.072-.521-.011-.077-.018-.154-.024-.23s-.015-.16-.02-.241c-.011-.146-.017-.3-.022-.444,0-.088,0-.173,0-.261v-6.683a8.912,8.912,0,0,1,8.421-8.9.1.1,0,0,1,.024,0l.184-.007c.092,0,.181,0,.273,0h.009c.072,0,.145,0,.217,0h.085l.2.009h.007l.092.007c.065,0,.131.008.194.015.033,0,.064,0,.1.009l.063.006a9.185,9.185,0,0,1,1.022.169,8.91,8.91,0,0,1,3.073,1.348c.205.14.4.289.593.446l.219.184v0c.146.129.291.261.424.4a7.722,7.722,0,0,1,.729.816,8.848,8.848,0,0,1,1.895,5.416C1485.119,302.966,1485.119,302.992,1485.119,303.018Z"/><path class="h" d="M1489.277,310.133a14.468,14.468,0,0,1-7.366,9.53,14.313,14.313,0,0,0,1.606-2.869,14.523,14.523,0,0,0,.747-2.309c.089-.383.161-.768.218-1.151a14.5,14.5,0,0,0-6.858-14.559c-.25-.149-.5-.294-.764-.427-.142-.077-.287-.147-.433-.217-.072-.035-.145-.07-.217-.1q-.331.151-.652.32c-.26.133-.514.278-.764.427a14.5,14.5,0,0,0-6.86,14.548c.056.388.131.775.221,1.162a14.407,14.407,0,0,0,.746,2.305,14.248,14.248,0,0,0,1.606,2.873,14.485,14.485,0,0,1,2.751-26.747c.053-.017.1-.03.158-.046a14.147,14.147,0,0,1,2.424-.262c.123,0,.248-.005.37-.005.072,0,.145,0,.217,0l.151,0a14.17,14.17,0,0,1,2.425.262c.052.016.1.029.157.046a14.345,14.345,0,0,1,6.811,4.27,14.48,14.48,0,0,1,3.306,12.947Z"/><path class="h" d="M1487.916,309.715a12.962,12.962,0,0,1-6.592,8.534l-.006.005a12.957,12.957,0,0,0,2.107-4.64c.081-.343.145-.687.195-1.03a12.943,12.943,0,0,0-3.037-10.43c-.038-.046-.079-.092-.121-.138-.019-.024-.039-.046-.061-.07l-.007-.007a12.858,12.858,0,0,0-2.917-2.4c-.346-.208-.7-.4-1.072-.578l-.2-.092a13.088,13.088,0,0,0-1.269.67,12.982,12.982,0,0,0-6.145,13.032c.05.348.118.7.2,1.041a12.9,12.9,0,0,0,2.107,4.64.057.057,0,0,1-.015-.009,12.981,12.981,0,0,1-6.478-14.859,13.022,13.022,0,0,1,2.856-5.27,12.842,12.842,0,0,1,6.1-3.823c.045-.016.094-.029.14-.042a12.9,12.9,0,0,1,2.173-.236l.33,0c.066,0,.129,0,.2,0h.136a12.927,12.927,0,0,1,2.171.236c.048.013.094.026.142.042a12.853,12.853,0,0,1,6.1,3.823,13.04,13.04,0,0,1,2.854,5.27A12.907,12.907,0,0,1,1487.916,309.715Z"/><path class="i" d="M1478.366,315.743a2.1,2.1,0,0,0-1.534-.691,1.942,1.942,0,0,1-1.242,0,2.112,2.112,0,0,0-1.536.691c-.029.03-.058.062-.085.094.027.032.056.064.085.094a2.84,2.84,0,0,0,4.312,0c.029-.03.058-.062.086-.094C1478.424,315.8,1478.4,315.773,1478.366,315.743Z"/><path class="h" d="M1480.583,302.154c-.038-.046-.079-.092-.121-.138-.019-.024-.039-.046-.061-.07.022.022.042.043.061.065A1.5,1.5,0,0,1,1480.583,302.154Z"/><path class="h" d="M1480.462,298.348v3.668c-.019-.024-.039-.046-.061-.07l-.007-.007a2.453,2.453,0,0,0-3.582.137.8.8,0,0,1-1.2,0,2.451,2.451,0,0,0-3.657-.059v-3.67Z"/><path class="j" d="M1476.21,292.6v55.133h-11.6c0-1.311.217-15.012.619-16.187q.108-.32.237-.631v0c.076-.193.162-.383.251-.569l.02-.044a11.351,11.351,0,0,1,.84-1.472c.18-.267.372-.53.574-.782.14-.173.282-.341.429-.5.072-.083.148-.164.225-.245s.153-.158.232-.237v0l.011-.008.011-.009v0a11.283,11.283,0,0,1,1.232-1.062c.221-.164.444-.317.676-.466.029-.02.059-.037.09-.055s.066-.041.1-.061l.1-.059c.066-.039.131-.079.2-.116l.015-.009.1-.059.1-.059h0v0h.007v0c.028-.016.059-.031.088-.048s.035-.022.052-.031l.044-.026.041-.027a.441.441,0,0,0,.051-.028c.061-.037.122-.077.184-.116.015-.009.028-.02.043-.029.044-.028.09-.059.134-.089l.072-.053c.055-.037.109-.076.162-.116l0,0,.007,0,.006,0,.018-.013c.05-.039.1-.081.153-.122l0,0,0,0h0v0a7.364,7.364,0,0,0,1.008-.974,7.155,7.155,0,0,0,.736-1.029,7.065,7.065,0,0,0,.8-1.947l0-.011c-.07-.027-.142-.057-.212-.088a8.4,8.4,0,0,1-1.005-.53c-.019-.011-.037-.024-.057-.035-.148-.091-.3-.19-.446-.293-.083-.059-.166-.118-.249-.179q-.391-.287-.773-.622-.105-.094-.21-.192l-.208-.193-.046-.046a12.841,12.841,0,0,1-2.186-1.455,14.248,14.248,0,0,0,1.606,2.873,14.485,14.485,0,0,1,2.751-26.747c.053-.017.1-.03.158-.046a14.147,14.147,0,0,1,2.424-.262C1475.963,292.606,1476.088,292.6,1476.21,292.6Z"/></g></g></svg>