<svg xmlns="http://www.w3.org/2000/svg" xmlns:xlink="http://www.w3.org/1999/xlink" width="57.326" height="57.326" viewBox="0 0 57.326 57.326"><defs><style>.a{fill:#c4c8c9;}.b{clip-path:url(#a);}.c{fill:#daa277;}.d{fill:#4aa9a3;}.e{fill:#fff;}.f{fill:#101319;}.g{fill:#151515;}.h{fill:#43302a;}.i{fill:#e9b389;opacity:0.5;mix-blend-mode:multiply;isolation:isolate;}</style><clipPath id="a"><circle class="a" cx="28.663" cy="28.663" r="28.663" transform="translate(815.761 281.99)"/></clipPath></defs><g transform="translate(-815.761 -281.99)"><circle class="a" cx="28.663" cy="28.663" r="28.663" transform="translate(815.761 281.99)"/><g class="b"><path class="c" d="M859.4,339.49v0H829.43v0a14.925,14.925,0,0,1,4.421-10.627c.127-.127.254-.248.386-.37.2-.181.4-.359.6-.531s.415-.333.63-.494c.282-.212.576-.41.873-.6s.6-.373.915-.542a.017.017,0,0,1,.011-.006c.122-.068.24-.136.359-.209a8.637,8.637,0,0,0,1.014-.7l.017-.015a.252.252,0,0,0,.037-.031,9.476,9.476,0,0,0,2.969-4.169v0a9.441,9.441,0,0,0,.553-3.2l2.2.009,2.229.011a9.434,9.434,0,0,0,3.494,7.353l.037.031.02.014c.093.077.189.15.285.221.133.1.268.2.4.285.1.068.206.136.31.2s.235.141.354.206a.117.117,0,0,1,.028.011l.025.017c.348.192.687.4,1.014.61.111.071.221.144.328.221.141.1.285.2.424.31h.005A14.943,14.943,0,0,1,859.4,339.49Z"/><path class="d" d="M859.4,339.49H829.43a14.925,14.925,0,0,1,4.421-10.627c.127-.127.254-.248.386-.37.2-.181.4-.359.6-.531s.415-.339.63-.5c.282-.209.576-.41.873-.6s.6-.373.915-.542a.017.017,0,0,1,.011-.006c.122-.068.24-.136.359-.209a8.637,8.637,0,0,0,1.014-.7c.012.011.023.022.034.031a8.051,8.051,0,0,0,5.743,2.4h.006a8.063,8.063,0,0,0,5.74-2.4l.034-.034c.093.077.189.15.285.221.133.1.268.2.4.285.1.068.206.136.31.2s.235.141.354.206a.117.117,0,0,1,.028.011.156.156,0,0,1,.025.014c.348.192.687.4,1.014.613.111.071.221.144.328.221.141.1.285.2.424.31h.005A14.943,14.943,0,0,1,859.4,339.49Z"/><path class="c" d="M855.915,298.053v9.375a15.868,15.868,0,0,1-8.726,13.749,7.013,7.013,0,0,1-2.74.664h-.034c-.045,0-.087,0-.132,0a7.1,7.1,0,0,1-2.616-.65,15.858,15.858,0,0,1-8.754-13.76v-9.375Z"/><path class="e" d="M850.2,325.338a.53.53,0,0,1-.02.056.445.445,0,0,1-.014.048,18.519,18.519,0,0,1-5.746,8.22,18.483,18.483,0,0,1-5.743-8.225l-.017-.046-.017-.053.045.017.009,0a8.586,8.586,0,0,0,11.446,0l.006-.005C850.167,325.352,850.184,325.343,850.2,325.338Z"/><path class="f" d="M855.87,306.3a1.56,1.56,0,0,0,.031-.224v.224Z"/><path class="f" d="M832.927,306.3v-.458a2.492,2.492,0,0,0,.042.458Z"/><path class="f" d="M855.912,305.841a2.292,2.292,0,0,1-.011.234v-.463A2.2,2.2,0,0,1,855.912,305.841Z"/><path class="g" d="M853.878,303.1a.089.089,0,0,0-.076-.091,28.557,28.557,0,0,0-3.926-.293,44.09,44.09,0,0,0-5.243.655h-.418c-.218,0-.918-.141-1.817-.294a21.693,21.693,0,0,0-3.426-.361,29.061,29.061,0,0,0-3.356.217c-.271.031-.466.059-.571.076a.089.089,0,0,0-.076.091l-.022,1.118a.1.1,0,0,0,.059.091l.127.042c.189.074.172,3.449,1.178,4.294.6.5,1.133.782,3.376.782a3.159,3.159,0,0,0,2.889-1.4,10.342,10.342,0,0,0,1.054-2.528.887.887,0,0,1,.771-.8h.023a.873.873,0,0,1,.794.8,10.366,10.366,0,0,0,1.053,2.528,3.159,3.159,0,0,0,2.89,1.4c2.243,0,2.777-.285,3.376-.782,1.005-.845.988-4.22,1.178-4.294l.127-.042a.1.1,0,0,0,.059-.091Zm-11.3,3.994a2.937,2.937,0,0,1-2.381,1.847c-3.6.181-3.763-.822-3.994-1.618a5.45,5.45,0,0,1-.2-2.288,1.927,1.927,0,0,1,.656-1.5,1.6,1.6,0,0,1,.757-.263,14.684,14.684,0,0,1,1.98-.091,10.357,10.357,0,0,1,1.6.122c1.279.206,2.146.644,2.146,1.07A8.027,8.027,0,0,1,842.576,307.1Zm10.071.229c-.235.8-.4,1.8-3.994,1.618a2.936,2.936,0,0,1-2.382-1.847,8.027,8.027,0,0,1-.562-2.718c0-.59,1.638-1.192,3.746-1.192s2.443.156,2.737.354a1.914,1.914,0,0,1,.658,1.5A5.465,5.465,0,0,1,852.647,307.327Z"/><path class="h" d="M855.9,298.053l-.037.025-.006,0H832.913v-.028c.014-8.079,5.469-7.751,11.454-7.085h.006l.048.006c.41.045.822.093,1.234.138a12.834,12.834,0,0,0,9.958-3.152C858.09,289.72,858.539,296.208,855.9,298.053Z"/><path class="h" d="M836.913,297.6l-.063.195c-.028.087-.056.172-.087.257l-.009.028c-.028.076-.053.153-.084.226a13.019,13.019,0,0,1-2.3,3.85,6.466,6.466,0,0,0-1.435,3.856c0,.051-.008.1-.008.156,0,.034-.006.067-.006.1-.006.116-.008.232-.008.353v-8.545l.234-.028.706-.085.918-.11,1.082-.13Z"/><path class="h" d="M855.9,298.082l-4-.477.062.193a12.946,12.946,0,0,0,2.48,4.361,6.7,6.7,0,0,1,1.455,4.47Z"/><ellipse class="h" cx="8.542" cy="1.619" rx="8.542" ry="1.619" transform="translate(835.826 295.986)"/><path class="h" d="M844.368,318.862H842.8L844.368,322l1.571-3.143Z"/><path class="i" d="M844.421,290.974v48.519H829.43v0a14.925,14.925,0,0,1,4.421-10.627c.127-.127.254-.248.386-.37.2-.181.4-.359.6-.531s.415-.339.63-.5c.282-.209.576-.41.873-.6s.6-.373.915-.542a.017.017,0,0,1,.011-.006c.122-.068.24-.136.359-.209a8.637,8.637,0,0,0,1.014-.7l.017-.015-.017-.053.045.017.009,0a9.476,9.476,0,0,0,2.969-4.169v0a15.858,15.858,0,0,1-8.754-13.76v-9.375c.014-8.079,5.469-7.751,11.454-7.085h.006Z"/></g><path class="e" d="M844.424,316.818c1.713,0,3.1-.566,3.1-1.264h-6.2C841.322,316.252,842.711,316.818,844.424,316.818Z"/></g></svg>